<mxfile host="Electron" agent="Mozilla/5.0 (Windows NT 10.0; Win64; x64) AppleWebKit/537.36 (KHTML, like Gecko) draw.io/26.2.2 Chrome/134.0.6998.178 Electron/35.1.2 Safari/537.36" version="26.2.2">
  <diagram name="Page-1" id="E-LY3vLfC3dZQDn1d9qz">
    <mxGraphModel dx="1160" dy="733" grid="1" gridSize="10" guides="1" tooltips="1" connect="1" arrows="1" fold="1" page="0" pageScale="1" pageWidth="1100" pageHeight="1700" background="none" math="0" shadow="0">
      <root>
        <mxCell id="0" />
        <mxCell id="1" parent="0" />
        <mxCell id="FwsHbSWiO5piVvwatuzb-1" value="" style="rounded=0;whiteSpace=wrap;html=1;fillColor=none;dashed=1;" parent="1" vertex="1">
          <mxGeometry x="35.5" y="100" width="120" height="690" as="geometry" />
        </mxCell>
        <mxCell id="FwsHbSWiO5piVvwatuzb-2" value="&lt;b&gt;&lt;font style=&quot;font-size: 20px;&quot;&gt;source&lt;/font&gt;&lt;/b&gt;" style="text;html=1;align=center;verticalAlign=middle;resizable=0;points=[];autosize=1;strokeColor=none;fillColor=none;" parent="1" vertex="1">
          <mxGeometry x="55" y="65" width="90" height="40" as="geometry" />
        </mxCell>
        <mxCell id="FwsHbSWiO5piVvwatuzb-3" value="" style="rounded=0;whiteSpace=wrap;html=1;fillColor=none;strokeColor=default;dashed=1;" parent="1" vertex="1">
          <mxGeometry x="240" y="100" width="530" height="690" as="geometry" />
        </mxCell>
        <mxCell id="FwsHbSWiO5piVvwatuzb-4" value="" style="rounded=0;whiteSpace=wrap;html=1;fillColor=none;dashed=1;" parent="1" vertex="1">
          <mxGeometry x="842.47" y="100" width="120" height="690" as="geometry" />
        </mxCell>
        <mxCell id="FwsHbSWiO5piVvwatuzb-5" value="&lt;b&gt;&lt;font style=&quot;font-size: 18px;&quot;&gt;data warehouse&lt;/font&gt;&lt;/b&gt;" style="text;html=1;align=center;verticalAlign=middle;resizable=0;points=[];autosize=1;strokeColor=none;fillColor=none;" parent="1" vertex="1">
          <mxGeometry x="425" y="65" width="160" height="40" as="geometry" />
        </mxCell>
        <mxCell id="FwsHbSWiO5piVvwatuzb-6" value="&lt;b&gt;&lt;font style=&quot;font-size: 18px;&quot;&gt;reporting&lt;/font&gt;&lt;/b&gt;" style="text;html=1;align=center;verticalAlign=middle;resizable=0;points=[];autosize=1;strokeColor=none;fillColor=none;" parent="1" vertex="1">
          <mxGeometry x="852.47" y="65" width="100" height="40" as="geometry" />
        </mxCell>
        <mxCell id="FwsHbSWiO5piVvwatuzb-7" value="&lt;b&gt;bronze&lt;/b&gt;" style="rounded=0;whiteSpace=wrap;html=1;fillColor=#f8cecc;strokeColor=#b85450;gradientColor=#ea6b66;" parent="1" vertex="1">
          <mxGeometry x="260" y="110" width="120" height="60" as="geometry" />
        </mxCell>
        <mxCell id="FwsHbSWiO5piVvwatuzb-8" value="&lt;b&gt;silver&lt;/b&gt;" style="rounded=0;whiteSpace=wrap;html=1;fillColor=#f5f5f5;strokeColor=#666666;gradientColor=#b3b3b3;" parent="1" vertex="1">
          <mxGeometry x="445" y="110" width="120" height="60" as="geometry" />
        </mxCell>
        <mxCell id="FwsHbSWiO5piVvwatuzb-9" value="&lt;b&gt;gold&lt;/b&gt;" style="rounded=0;whiteSpace=wrap;html=1;fillColor=#fff2cc;strokeColor=#d6b656;gradientColor=#ffd966;" parent="1" vertex="1">
          <mxGeometry x="630" y="110" width="120" height="60" as="geometry" />
        </mxCell>
        <mxCell id="FwsHbSWiO5piVvwatuzb-10" value="" style="rounded=0;whiteSpace=wrap;html=1;fillColor=none;" parent="1" vertex="1">
          <mxGeometry x="260" y="190" width="120" height="580" as="geometry" />
        </mxCell>
        <mxCell id="FwsHbSWiO5piVvwatuzb-11" value="" style="rounded=0;whiteSpace=wrap;html=1;fillColor=none;" parent="1" vertex="1">
          <mxGeometry x="445" y="190" width="120" height="580" as="geometry" />
        </mxCell>
        <mxCell id="FwsHbSWiO5piVvwatuzb-12" value="" style="rounded=0;whiteSpace=wrap;html=1;fillColor=none;" parent="1" vertex="1">
          <mxGeometry x="630" y="190" width="120" height="580" as="geometry" />
        </mxCell>
        <mxCell id="FwsHbSWiO5piVvwatuzb-16" value="" style="image;aspect=fixed;html=1;points=[];align=center;fontSize=12;image=img/lib/azure2/general/Folder_Blank.svg;" parent="1" vertex="1">
          <mxGeometry x="61" y="537" width="69" height="56.00000000000001" as="geometry" />
        </mxCell>
        <mxCell id="FwsHbSWiO5piVvwatuzb-17" value="" style="image;aspect=fixed;html=1;points=[];align=center;fontSize=12;image=img/lib/azure2/general/Folder_Blank.svg;" parent="1" vertex="1">
          <mxGeometry x="63.47" y="274" width="69" height="56.00000000000001" as="geometry" />
        </mxCell>
        <mxCell id="FwsHbSWiO5piVvwatuzb-14" value="" style="image;aspect=fixed;html=1;points=[];align=center;fontSize=12;image=img/lib/azure2/general/File.svg;" parent="1" vertex="1">
          <mxGeometry x="110" y="300" width="32.47" height="40" as="geometry" />
        </mxCell>
        <mxCell id="FwsHbSWiO5piVvwatuzb-15" value="" style="image;aspect=fixed;html=1;points=[];align=center;fontSize=12;image=img/lib/azure2/general/File.svg;" parent="1" vertex="1">
          <mxGeometry x="100.01" y="560" width="32.46" height="40" as="geometry" />
        </mxCell>
        <mxCell id="FwsHbSWiO5piVvwatuzb-18" value="CRM" style="text;html=1;align=center;verticalAlign=middle;whiteSpace=wrap;rounded=0;" parent="1" vertex="1">
          <mxGeometry x="65.5" y="340" width="60" height="30" as="geometry" />
        </mxCell>
        <mxCell id="FwsHbSWiO5piVvwatuzb-19" value="ERP" style="text;html=1;align=center;verticalAlign=middle;whiteSpace=wrap;rounded=0;" parent="1" vertex="1">
          <mxGeometry x="61" y="610" width="60" height="30" as="geometry" />
        </mxCell>
        <mxCell id="FwsHbSWiO5piVvwatuzb-24" value="" style="html=1;verticalLabelPosition=bottom;align=center;labelBackgroundColor=#ffffff;verticalAlign=top;strokeWidth=2;strokeColor=#b85450;shadow=0;dashed=0;shape=mxgraph.ios7.icons.data;fillColor=#f8cecc;gradientColor=#ea6b66;" parent="1" vertex="1">
          <mxGeometry x="294" y="200" width="52" height="70" as="geometry" />
        </mxCell>
        <mxCell id="FwsHbSWiO5piVvwatuzb-25" value="" style="html=1;verticalLabelPosition=bottom;align=center;labelBackgroundColor=#ffffff;verticalAlign=top;strokeWidth=2;strokeColor=#d6b656;shadow=0;dashed=0;shape=mxgraph.ios7.icons.data;fillColor=#fff2cc;gradientColor=#ffd966;" parent="1" vertex="1">
          <mxGeometry x="664" y="200" width="52" height="70" as="geometry" />
        </mxCell>
        <mxCell id="FwsHbSWiO5piVvwatuzb-26" value="" style="html=1;verticalLabelPosition=bottom;align=center;labelBackgroundColor=#ffffff;verticalAlign=top;strokeWidth=2;strokeColor=#666666;shadow=0;dashed=0;shape=mxgraph.ios7.icons.data;fillColor=#f5f5f5;gradientColor=#b3b3b3;" parent="1" vertex="1">
          <mxGeometry x="479" y="200" width="52" height="70" as="geometry" />
        </mxCell>
        <mxCell id="FwsHbSWiO5piVvwatuzb-27" value="Raw data&lt;div&gt;unprocessed&lt;/div&gt;" style="text;html=1;align=center;verticalAlign=middle;whiteSpace=wrap;rounded=0;" parent="1" vertex="1">
          <mxGeometry x="286" y="280" width="60" height="30" as="geometry" />
        </mxCell>
        <mxCell id="FwsHbSWiO5piVvwatuzb-28" value="Clean &amp;amp;&lt;div&gt;standardized&amp;nbsp;&lt;/div&gt;&lt;div&gt;data&lt;/div&gt;" style="text;html=1;align=center;verticalAlign=middle;whiteSpace=wrap;rounded=0;" parent="1" vertex="1">
          <mxGeometry x="475" y="280" width="60" height="30" as="geometry" />
        </mxCell>
        <mxCell id="FwsHbSWiO5piVvwatuzb-29" value="Business&lt;div&gt;ready data&lt;/div&gt;" style="text;html=1;align=center;verticalAlign=middle;whiteSpace=wrap;rounded=0;" parent="1" vertex="1">
          <mxGeometry x="660" y="280" width="60" height="30" as="geometry" />
        </mxCell>
        <mxCell id="FwsHbSWiO5piVvwatuzb-31" value="" style="endArrow=none;html=1;rounded=0;entryX=1;entryY=0.5;entryDx=0;entryDy=0;exitX=0;exitY=0.5;exitDx=0;exitDy=0;" parent="1" edge="1">
          <mxGeometry width="50" height="50" relative="1" as="geometry">
            <mxPoint x="445" y="359.5" as="sourcePoint" />
            <mxPoint x="565" y="359.5" as="targetPoint" />
          </mxGeometry>
        </mxCell>
        <mxCell id="FwsHbSWiO5piVvwatuzb-32" value="" style="endArrow=none;html=1;rounded=0;entryX=1;entryY=0.5;entryDx=0;entryDy=0;exitX=0;exitY=0.5;exitDx=0;exitDy=0;" parent="1" edge="1">
          <mxGeometry width="50" height="50" relative="1" as="geometry">
            <mxPoint x="630" y="359.5" as="sourcePoint" />
            <mxPoint x="750" y="359.5" as="targetPoint" />
          </mxGeometry>
        </mxCell>
        <mxCell id="FwsHbSWiO5piVvwatuzb-33" value="&lt;b&gt;objective&lt;/b&gt;:&amp;nbsp;&lt;div&gt;traceability&amp;nbsp;&lt;/div&gt;&lt;div&gt;&amp;amp; debugging&lt;/div&gt;" style="text;html=1;align=center;verticalAlign=middle;whiteSpace=wrap;rounded=0;" parent="1" vertex="1">
          <mxGeometry x="250" y="370" width="140" height="30" as="geometry" />
        </mxCell>
        <mxCell id="FwsHbSWiO5piVvwatuzb-35" value="&lt;b&gt;object type:&lt;/b&gt; table" style="text;html=1;align=center;verticalAlign=middle;whiteSpace=wrap;rounded=0;" parent="1" vertex="1">
          <mxGeometry x="290" y="420" width="60" height="30" as="geometry" />
        </mxCell>
        <mxCell id="FwsHbSWiO5piVvwatuzb-36" value="&lt;b&gt;load method: &lt;/b&gt;full load" style="text;html=1;align=center;verticalAlign=middle;whiteSpace=wrap;rounded=0;" parent="1" vertex="1">
          <mxGeometry x="290" y="470" width="60" height="30" as="geometry" />
        </mxCell>
        <mxCell id="FwsHbSWiO5piVvwatuzb-37" value="" style="endArrow=none;html=1;rounded=0;entryX=1;entryY=0.5;entryDx=0;entryDy=0;exitX=0;exitY=0.5;exitDx=0;exitDy=0;" parent="1" edge="1">
          <mxGeometry width="50" height="50" relative="1" as="geometry">
            <mxPoint x="260" y="360" as="sourcePoint" />
            <mxPoint x="380" y="360" as="targetPoint" />
          </mxGeometry>
        </mxCell>
        <mxCell id="FwsHbSWiO5piVvwatuzb-38" value="&lt;b&gt;data transformation:&lt;/b&gt;&lt;div&gt;none&lt;/div&gt;" style="text;html=1;align=center;verticalAlign=middle;whiteSpace=wrap;rounded=0;" parent="1" vertex="1">
          <mxGeometry x="290" y="530" width="60" height="30" as="geometry" />
        </mxCell>
        <mxCell id="FwsHbSWiO5piVvwatuzb-39" value="&lt;b&gt;data modeling&lt;/b&gt;:&lt;div&gt;none&lt;/div&gt;" style="text;html=1;align=center;verticalAlign=middle;whiteSpace=wrap;rounded=0;" parent="1" vertex="1">
          <mxGeometry x="290" y="650" width="60" height="30" as="geometry" />
        </mxCell>
        <mxCell id="FwsHbSWiO5piVvwatuzb-40" value="&lt;b&gt;objective&lt;/b&gt;:&amp;nbsp;&lt;div&gt;prepare data for&amp;nbsp;&lt;/div&gt;&lt;div&gt;analysis&lt;/div&gt;" style="text;html=1;align=center;verticalAlign=middle;whiteSpace=wrap;rounded=0;" parent="1" vertex="1">
          <mxGeometry x="435" y="370" width="140" height="30" as="geometry" />
        </mxCell>
        <mxCell id="FwsHbSWiO5piVvwatuzb-41" value="&lt;b&gt;object type:&lt;/b&gt; table" style="text;html=1;align=center;verticalAlign=middle;whiteSpace=wrap;rounded=0;" parent="1" vertex="1">
          <mxGeometry x="475" y="420" width="60" height="30" as="geometry" />
        </mxCell>
        <mxCell id="FwsHbSWiO5piVvwatuzb-42" value="&lt;b&gt;load method: &lt;/b&gt;full load" style="text;html=1;align=center;verticalAlign=middle;whiteSpace=wrap;rounded=0;" parent="1" vertex="1">
          <mxGeometry x="475" y="470" width="60" height="30" as="geometry" />
        </mxCell>
        <mxCell id="FwsHbSWiO5piVvwatuzb-43" value="&lt;b&gt;data transformation:&lt;/b&gt;&lt;div&gt;cleaning,&lt;/div&gt;&lt;div&gt;standardization&lt;/div&gt;&lt;div&gt;normalization&lt;/div&gt;&lt;div&gt;enrichment&lt;/div&gt;&lt;div&gt;derived columns&lt;/div&gt;" style="text;html=1;align=center;verticalAlign=middle;whiteSpace=wrap;rounded=0;" parent="1" vertex="1">
          <mxGeometry x="475" y="560" width="60" height="30" as="geometry" />
        </mxCell>
        <mxCell id="FwsHbSWiO5piVvwatuzb-44" value="&lt;b&gt;data modeling&lt;/b&gt;:&lt;div&gt;none&lt;/div&gt;" style="text;html=1;align=center;verticalAlign=middle;whiteSpace=wrap;rounded=0;" parent="1" vertex="1">
          <mxGeometry x="475" y="650" width="60" height="30" as="geometry" />
        </mxCell>
        <mxCell id="FwsHbSWiO5piVvwatuzb-45" value="&lt;b&gt;objective&lt;/b&gt;:&amp;nbsp;&lt;div&gt;business ready data&lt;/div&gt;" style="text;html=1;align=center;verticalAlign=middle;whiteSpace=wrap;rounded=0;" parent="1" vertex="1">
          <mxGeometry x="620" y="360" width="140" height="30" as="geometry" />
        </mxCell>
        <mxCell id="FwsHbSWiO5piVvwatuzb-46" value="&lt;b&gt;object type:&lt;/b&gt;&amp;nbsp;&lt;div&gt;views&lt;/div&gt;" style="text;html=1;align=center;verticalAlign=middle;whiteSpace=wrap;rounded=0;" parent="1" vertex="1">
          <mxGeometry x="660" y="420" width="60" height="30" as="geometry" />
        </mxCell>
        <mxCell id="FwsHbSWiO5piVvwatuzb-47" value="&lt;b&gt;load method:&amp;nbsp;&lt;/b&gt;&lt;div&gt;&lt;b&gt;none&lt;/b&gt;&lt;/div&gt;" style="text;html=1;align=center;verticalAlign=middle;whiteSpace=wrap;rounded=0;" parent="1" vertex="1">
          <mxGeometry x="660" y="470" width="60" height="30" as="geometry" />
        </mxCell>
        <mxCell id="FwsHbSWiO5piVvwatuzb-49" value="&lt;b&gt;data transformation:&lt;/b&gt;&lt;div&gt;integration&lt;/div&gt;&lt;div&gt;aggregetion&lt;/div&gt;&lt;div&gt;business logic&amp;amp;rules&lt;/div&gt;" style="text;html=1;align=center;verticalAlign=middle;whiteSpace=wrap;rounded=0;" parent="1" vertex="1">
          <mxGeometry x="660" y="550" width="60" height="30" as="geometry" />
        </mxCell>
        <mxCell id="FwsHbSWiO5piVvwatuzb-50" value="&lt;b&gt;data modeling&lt;/b&gt;:&lt;div&gt;start schema&lt;/div&gt;&lt;div&gt;aggregated objects&lt;/div&gt;&lt;div&gt;flat tables&lt;/div&gt;" style="text;html=1;align=center;verticalAlign=middle;whiteSpace=wrap;rounded=0;" parent="1" vertex="1">
          <mxGeometry x="660" y="680" width="60" height="30" as="geometry" />
        </mxCell>
        <mxCell id="FwsHbSWiO5piVvwatuzb-52" value="" style="shape=singleArrow;whiteSpace=wrap;html=1;" parent="1" vertex="1">
          <mxGeometry x="160" y="400" width="82.47" height="60" as="geometry" />
        </mxCell>
        <mxCell id="FwsHbSWiO5piVvwatuzb-53" value="" style="shape=singleArrow;whiteSpace=wrap;html=1;" parent="1" vertex="1">
          <mxGeometry x="362.53" y="405" width="82.47" height="60" as="geometry" />
        </mxCell>
        <mxCell id="FwsHbSWiO5piVvwatuzb-54" value="" style="shape=singleArrow;whiteSpace=wrap;html=1;" parent="1" vertex="1">
          <mxGeometry x="547.53" y="405" width="82.47" height="60" as="geometry" />
        </mxCell>
        <mxCell id="FwsHbSWiO5piVvwatuzb-55" value="" style="shape=singleArrow;whiteSpace=wrap;html=1;" parent="1" vertex="1">
          <mxGeometry x="760" y="400" width="82.47" height="60" as="geometry" />
        </mxCell>
        <mxCell id="FwsHbSWiO5piVvwatuzb-56" value="" style="image;aspect=fixed;html=1;points=[];align=center;fontSize=12;image=img/lib/azure2/power_platform/PowerBI.svg;" parent="1" vertex="1">
          <mxGeometry x="876.97" y="190" width="51" height="68" as="geometry" />
        </mxCell>
        <mxCell id="FwsHbSWiO5piVvwatuzb-57" value="" style="points=[];aspect=fixed;html=1;align=center;shadow=0;dashed=0;fillColor=#FF6A00;strokeColor=none;shape=mxgraph.alibaba_cloud.machine_learning;" parent="1" vertex="1">
          <mxGeometry x="876.97" y="339.9" width="49.8" height="50.099999999999994" as="geometry" />
        </mxCell>
        <mxCell id="FwsHbSWiO5piVvwatuzb-58" value="" style="verticalLabelPosition=bottom;sketch=0;aspect=fixed;html=1;verticalAlign=top;strokeColor=none;align=center;outlineConnect=0;shape=mxgraph.citrix.reporting;" parent="1" vertex="1">
          <mxGeometry x="871.72" y="460" width="61.5" height="69" as="geometry" />
        </mxCell>
        <mxCell id="FwsHbSWiO5piVvwatuzb-62" value="" style="verticalLabelPosition=bottom;html=1;verticalAlign=top;align=center;strokeColor=none;fillColor=#00BEF2;shape=mxgraph.azure.sql_reporting;" parent="1" vertex="1">
          <mxGeometry x="881.87" y="620" width="40" height="50" as="geometry" />
        </mxCell>
      </root>
    </mxGraphModel>
  </diagram>
</mxfile>
